<svg xmlns="http://www.w3.org/2000/svg" viewBox="0 0 61.06 43.87"><defs><style>.cls-1{fill:#fff;}</style></defs><g id="Слой_2" data-name="Слой 2"><g id="Слой_2-2" data-name="Слой 2"><path class="cls-1" d="M11.72,43.87,0,0H11.51l4.33,19.4c.43,2,.82,4.09,1.16,6.38s.69,4.57,1,6.86.67,4.45,1,6.49H17.08c.39-2,.76-4.21,1.12-6.49s.72-4.58,1.11-6.86.83-4.41,1.3-6.38L25.26,0H35.83l4.62,19.4c.48,2,.91,4.09,1.3,6.38s.77,4.57,1.13,6.86.73,4.45,1.11,6.49H42c.36-2,.7-4.21,1-6.49s.67-4.58,1-6.86.75-4.41,1.16-6.38L49.55,0H61.06L49.35,43.87H37.57L32.45,23.61a83.77,83.77,0,0,1-1.7-9Q30.09,9.78,29.21,5h2.65q-1,4.71-1.56,9.51a72.35,72.35,0,0,1-1.65,9.09L23.52,43.87Z"/></g></g></svg>